<svg width="41" height="40" viewBox="0 0 41 40" fill="none" xmlns="http://www.w3.org/2000/svg">
<path fill-rule="evenodd" clip-rule="evenodd" d="M20.8889 0C16.1238 0.00269432 11.5216 1.73668 7.93684 4.87996C4.30259 8.07051 1.90363 12.4382 1.15917 17.2199C0.398247 22.0216 1.32825 26.9389 3.78994 31.1297C6.21627 35.2702 10.0426 38.4046 14.5767 39.9657C15.5835 40.1557 15.941 39.5197 15.941 38.9777C15.941 38.4877 15.921 36.8737 15.913 35.1617C10.3599 36.4017 9.18931 32.7417 9.18931 32.7417C8.82981 31.5097 8.04374 30.4461 6.97203 29.7418C5.16026 28.4678 7.11186 28.4998 7.11186 28.4998C7.74508 28.5878 8.35034 28.8258 8.87969 29.1918C9.41103 29.5578 9.85249 30.0438 10.1721 30.6117C10.4418 31.1177 10.8073 31.5637 11.2468 31.9217C11.9013 32.4637 12.7059 32.7919 13.5524 32.8619C14.3989 32.932 15.2464 32.7407 15.981 32.3137C16.0709 31.2737 16.5203 30.3018 17.2494 29.5738C12.8169 29.0558 8.15258 27.2978 8.15258 19.4338C8.12169 17.4061 8.85732 15.4415 10.2121 13.9339C9.6008 12.1641 9.66915 10.23 10.4038 8.50793C10.4038 8.50793 12.0798 7.95793 15.8951 10.6079C19.1638 9.68947 22.622 9.68947 25.8908 10.6079C29.6981 7.95793 31.3641 8.50793 31.3641 8.50793C32.1032 10.2239 32.1751 12.1639 31.5658 13.9339C32.9191 15.4421 33.6533 17.4066 33.6213 19.4338C33.6213 27.3118 28.949 29.0438 24.5045 29.5498C24.9842 30.0512 25.3529 30.6483 25.5866 31.302C25.8203 31.9557 25.9138 32.6514 25.8608 33.3437C25.8608 36.0877 25.8369 38.2977 25.8369 38.9717C25.8369 39.5157 26.1964 40.1557 27.2092 39.9557C31.7353 38.3881 35.5526 35.2521 37.972 31.1137C40.4292 26.9265 41.3564 22.0142 40.5947 17.2179C39.8496 12.4406 37.4531 8.07691 33.8231 4.88796C30.2447 1.74631 25.6502 0.00974732 20.8909 0H20.8889Z" fill="#A7A2A9"/>
</svg>
