<svg width="64" height="58" viewBox="0 0 64 58" fill="none" xmlns="http://www.w3.org/2000/svg">
<path d="M30.6875 48.3332H9.6875C8.64321 48.3332 7.64169 47.9513 6.90327 47.2714C6.16484 46.5916 5.75 45.6696 5.75 44.7082V13.2915C5.75 12.3301 6.16484 11.4081 6.90327 10.7282C7.64169 10.0484 8.64321 9.6665 9.6875 9.6665H54.3125C55.3568 9.6665 56.3583 10.0484 57.0967 10.7282C57.8352 11.4081 58.25 12.3301 58.25 13.2915V31.2739" stroke="white" stroke-width="2" stroke-linecap="round" stroke-linejoin="round"/>
<path d="M5.75 13.2915C5.75 12.3301 6.16484 11.4081 6.90327 10.7282C7.64169 10.0484 8.64321 9.6665 9.6875 9.6665H54.3125C55.3568 9.6665 56.3583 10.0484 57.0967 10.7282C57.8352 11.4081 58.25 12.3301 58.25 13.2915V24.1665H5.75V13.2915Z" stroke="white" stroke-width="2"/>
<path d="M45.125 39.875L39.875 44.7083L45.125 49.5417M53 39.875L58.25 44.7083L53 49.5417" stroke="#FFC800" stroke-width="2" stroke-linecap="round" stroke-linejoin="round"/>
<path d="M11 16.9163C11 15.5817 12.1753 14.4997 13.625 14.4997C15.0747 14.4997 16.25 15.5817 16.25 16.9163C16.25 18.251 15.0747 19.333 13.625 19.333C12.1753 19.333 11 18.251 11 16.9163Z" fill="white"/>
<path d="M18.875 16.9163C18.875 15.5817 20.0503 14.4997 21.5 14.4997C22.9497 14.4997 24.125 15.5817 24.125 16.9163C24.125 18.251 22.9497 19.333 21.5 19.333C20.0503 19.333 18.875 18.251 18.875 16.9163Z" fill="white"/>
</svg>
