<svg width="31" height="30" viewBox="0 0 31 30" fill="none" xmlns="http://www.w3.org/2000/svg">
<path d="M5.81246 7.5C7.23919 7.5 8.39579 6.38071 8.39579 5C8.39579 3.61929 7.23919 2.5 5.81246 2.5C4.38572 2.5 3.22913 3.61929 3.22913 5C3.22913 6.38071 4.38572 7.5 5.81246 7.5Z" stroke="white" stroke-width="2"/>
<path d="M3.22913 11.25H8.39579V26.875H3.22913V11.25ZM13.5625 17.1875V26.875H18.0833V18.125C18.0833 16.5625 19.052 15.3125 20.6666 15.3125C22.2812 15.3125 23.25 16.875 23.25 18.125V26.875H27.7708V17.1875C27.7708 15.3125 25.5104 11.25 20.6666 11.25C15.8229 11.25 13.5625 15.3125 13.5625 17.1875Z" stroke="white" stroke-width="2" stroke-linejoin="round"/>
</svg>
