<svg width="30" height="30" viewBox="0 0 30 30" fill="none" xmlns="http://www.w3.org/2000/svg">
<path d="M3.73504 25.7208H9.41361V6.61728L7.67361 5.50299C5.15575 3.89156 1.8429 5.69585 1.8429 8.6787V23.8373C1.8429 24.8787 2.69147 25.723 3.73718 25.723L3.73504 25.7208Z" stroke="white" stroke-linecap="round" stroke-linejoin="round"/>
<path d="M1.8429 8.67861V11.1986L9.41361 16.0479L15.0922 19.6865L20.7708 16.0479L28.3436 11.1986V8.67646C28.3436 5.69361 25.0286 3.88932 22.5086 5.50504L20.7729 6.61932L15.0922 10.2557L9.41361 6.61718L7.67361 5.50289C5.15575 3.89146 1.8429 5.69575 1.8429 8.67861Z" stroke="white" stroke-linecap="round" stroke-linejoin="round"/>
<path d="M20.7708 25.7207H26.4493C26.6975 25.7216 26.9434 25.6734 27.1729 25.5791C27.4025 25.4847 27.6111 25.3459 27.7869 25.1707C27.9627 24.9955 28.1021 24.7874 28.1973 24.5582C28.2925 24.3289 28.3415 24.0832 28.3415 23.835V8.67646C28.3415 5.69361 25.0286 3.88932 22.5086 5.50504L20.7708 6.61932V25.7207Z" stroke="white" stroke-linecap="round" stroke-linejoin="round"/>
</svg>
