<svg width="1321" height="998" viewBox="0 0 1321 998" fill="none" xmlns="http://www.w3.org/2000/svg">
<path d="M513.153 53.93C598.646 -16.8161 722.353 -16.8161 807.847 53.93L817.55 61.9594C858.965 96.2307 911.169 114.746 964.923 114.229L1025.65 113.644C1120.29 112.733 1197.08 191.509 1195.69 286.145C1194.94 337.139 1217.97 386.306 1258 417.896C1341.13 483.483 1341.13 609.517 1258 675.104C1217.97 706.694 1194.94 755.861 1195.69 806.855C1197.08 901.491 1120.29 980.267 1025.65 979.356L964.923 978.771C911.169 978.254 858.966 996.769 817.55 1031.04L807.847 1039.07C722.354 1109.82 598.647 1109.82 513.153 1039.07L503.45 1031.04C462.035 996.769 409.831 978.254 356.077 978.771L295.355 979.356C200.713 980.267 123.918 901.491 125.313 806.855C126.064 755.861 103.034 706.694 62.9964 675.104C-20.1302 609.517 -20.1302 483.483 62.9964 417.896C103.034 386.306 126.064 337.139 125.313 286.145C123.918 191.509 200.713 112.733 295.355 113.644L356.077 114.229C409.831 114.746 462.035 96.2307 503.45 61.9594L513.153 53.93Z" fill="url(#paint0_radial_52_209)"/>
<defs>
<radialGradient id="paint0_radial_52_209" cx="0" cy="0" r="1" gradientUnits="userSpaceOnUse" gradientTransform="translate(660.5 546.5) rotate(90) scale(552.412 683.66)">
<stop stop-color="#FFC800"/>
<stop offset="1" stop-color="#492D66" stop-opacity="0"/>
</radialGradient>
</defs>
</svg>
