<svg width="63" height="63" viewBox="0 0 63 63" fill="none" xmlns="http://www.w3.org/2000/svg">
<g clip-path="url(#clip0_43_267)">
<path d="M15.75 30.4673V47.2498H32.5325L29.0325 43.7498H19.25V33.9673L15.75 30.4673Z" fill="white"/>
<path d="M61.0225 56.5074L56 51.4149V55.9999H7.00003V48.7374H10.5V45.9374H7.00003V34.2999H10.5V31.4999H7.00003V20.2999H10.5V17.4999H7.00003V7.71742L34.895 35.4549V30.5199L6.49253 2.25742C6.24776 2.01062 5.93503 1.84231 5.59422 1.77393C5.25341 1.70556 4.89996 1.74023 4.57894 1.87352C4.25791 2.00682 3.98385 2.23269 3.7917 2.52235C3.59955 2.81201 3.49801 3.15233 3.50003 3.49992V57.7499C3.50003 58.2141 3.6844 58.6592 4.01259 58.9874C4.34078 59.3155 4.7859 59.4999 5.25003 59.4999H59.78C60.1276 59.5019 60.4679 59.4004 60.7576 59.2083C61.0473 59.0161 61.2731 58.742 61.4064 58.421C61.5397 58.1 61.5744 57.7465 61.506 57.4057C61.4376 57.0649 61.2693 56.7522 61.0225 56.5074Z" fill="white"/>
<path d="M42 52.5001H49C49.9283 52.5001 50.8185 52.1314 51.4749 51.475C52.1313 50.8186 52.5 49.9284 52.5 49.0001V15.2251L48.475 7.8226C48.1637 7.28329 47.7142 6.83679 47.1727 6.52917C46.6313 6.22154 46.0176 6.06394 45.395 6.0726C44.7583 6.07766 44.1349 6.25633 43.5922 6.58937C43.0495 6.9224 42.6079 7.3972 42.315 7.96261L38.5 15.2601V49.0001C38.5 49.9284 38.8687 50.8186 39.5251 51.475C40.1815 52.1314 41.0717 52.5001 42 52.5001ZM42 16.1001L45.395 9.5026L49 16.1176V42.0001H42V16.1001ZM42 44.8526H49V49.1226H42V44.8526Z" fill="#FFC800"/>
</g>
<defs>
<clipPath id="clip0_43_267">
<rect width="63" height="63" fill="white"/>
</clipPath>
</defs>
</svg>
