<svg width="90" height="90" viewBox="0 0 90 90" fill="none" xmlns="http://www.w3.org/2000/svg">
<path d="M3.63 33.8513L32.5688 50.4562L32.5463 55.4062L16.0838 45.9637L5.7225 51.8512L32.5275 67.3013L32.5463 72.0637L3.82876 55.545C3.90376 57.48 5.65876 63.4425 9.01501 68.0588C12.4275 72.735 16.3125 74.7187 16.3125 74.7187L42.855 90V44.4337L3.65625 21.9225L3.63 33.8513ZM86.37 19.6013L57.075 2.71125C57.075 2.71125 52.4325 0 45.03 0C37.32 0 32.85 2.7975 32.85 2.7975L5.71501 18.3225L46.9988 42.0525V90L74.1675 74.49C74.1675 74.49 79.0238 71.8088 82.7138 65.4375C85.965 59.8275 86.37 54.4012 86.37 54.4012V19.6013ZM42.1913 27.405C42.1913 27.405 48.2475 26.2875 53.3663 29.2425L61.5075 33.93C61.5075 33.93 61.5188 38.0438 61.5188 44.19C61.5188 49.1138 57.3488 54.2175 57.3488 54.2175L57.3563 36.1575L42.1913 27.405ZM66.1988 67.0125L57.3563 72.0862V67.3275L64.2375 63.39C70.7925 58.665 71.8763 51.7012 71.8763 49.2862L71.85 27.8925L53.0775 17.0888C53.0775 17.0888 50.2275 15.2175 45.0938 15.2175C39.9675 15.2175 37.17 16.9463 37.17 16.9463L30.5775 20.7375L26.415 18.3337L35.5238 13.125C35.5238 13.125 39.0863 11.1488 45.0638 11.1488C50.5463 11.1488 54.8138 13.29 54.8138 13.29L76.0125 25.5375L75.9863 48.885C76.1363 52.4738 74.4638 61.2413 66.1988 67.0125Z" fill="white"/>
</svg>
