<svg width="90" height="90" viewBox="0 0 90 90" fill="none" xmlns="http://www.w3.org/2000/svg">
<path d="M28.1325 0H37.8V4.0425H32.175V8.085H37.8V12.1275H28.1325V0ZM39.7313 0H49.4025V3.5175H43.7775V4.21875H49.4025V12.3038H39.7313V8.61375H45.3563V7.90875H39.7313V0ZM51.3375 0H61.0013V3.5175H55.3763V4.21875H61.0013V12.3038H51.3375V8.61375H56.9625V7.90875H51.3375V0Z" fill="white"/>
<path fill-rule="evenodd" clip-rule="evenodd" d="M44.9663 90.0002L18.9262 82.7702L11.25 17.689H78.75L71.0775 82.7627L44.9663 90.0002ZM26.4262 47.149L27.1425 55.129H54.8062L53.88 65.479L44.9775 67.8865H44.97L36.0825 65.4865L35.5125 59.1227H27.4988L28.6163 71.6552L44.9663 76.1927L61.3425 71.6552L63.3375 49.2902L63.5325 47.149L64.9725 30.9902H24.99L25.7175 38.974H56.2275L55.5 47.149H26.4262Z" fill="white"/>
</svg>
