<svg width="1063" height="619" viewBox="0 0 1063 619" fill="none" xmlns="http://www.w3.org/2000/svg">
<path d="M407.941 -60.7362C479.629 -120.069 583.371 -120.069 655.059 -60.7362L657.985 -58.3147C691.342 -30.7074 733.39 -15.7921 776.687 -16.2089L825.555 -16.6793C901.795 -17.4132 963.659 46.0448 962.535 122.28C961.93 163.355 980.479 202.959 1012.73 228.407C1079.68 281.242 1079.68 382.758 1012.73 435.593C980.479 461.041 961.93 500.645 962.535 541.72C963.659 617.955 901.795 681.413 825.555 680.679L776.687 680.209C733.39 679.792 691.342 694.707 657.985 722.315L655.059 724.736C583.371 784.069 479.629 784.069 407.94 724.736L405.015 722.315C371.658 694.707 329.61 679.792 286.313 680.209L237.445 680.679C161.205 681.413 99.3413 617.955 100.465 541.72C101.07 500.645 82.5214 461.041 50.2734 435.593C-16.6793 382.758 -16.6793 281.242 50.2734 228.407C82.5214 202.959 101.07 163.355 100.465 122.28C99.3413 46.0448 161.205 -17.4132 237.445 -16.6793L286.313 -16.2089C329.61 -15.7921 371.658 -30.7074 405.015 -58.3147L407.941 -60.7362Z" fill="url(#paint0_radial_52_320)"/>
<defs>
<radialGradient id="paint0_radial_52_320" cx="0" cy="0" r="1" gradientUnits="userSpaceOnUse" gradientTransform="translate(531.5 332) rotate(92.0791) scale(454.799 562.757)">
<stop stop-color="#FFC800" stop-opacity="0.6"/>
<stop offset="0.858687" stop-color="#492D66" stop-opacity="0"/>
</radialGradient>
</defs>
</svg>
