<svg width="40" height="40" viewBox="0 0 40 40" fill="none" xmlns="http://www.w3.org/2000/svg">
<path d="M33.3333 29.1667C33.9753 29.167 34.5926 29.4143 35.0573 29.8574C35.5219 30.3004 35.7983 30.9053 35.8292 31.5466C35.86 32.1879 35.643 32.8164 35.223 33.302C34.803 33.7877 34.2123 34.0931 33.5733 34.155L33.3333 34.1667H6.66663C6.0246 34.1664 5.4073 33.9191 4.94265 33.476C4.478 33.033 4.20161 32.4281 4.17075 31.7868C4.1399 31.1456 4.35695 30.517 4.77692 30.0314C5.19689 29.5458 5.78759 29.2403 6.42663 29.1784L6.66663 29.1667H33.3333ZM33.3333 17.5C33.9963 17.5 34.6322 17.7634 35.1011 18.2323C35.5699 18.7011 35.8333 19.337 35.8333 20C35.8333 20.6631 35.5699 21.299 35.1011 21.7678C34.6322 22.2367 33.9963 22.5 33.3333 22.5H6.66663C6.00358 22.5 5.3677 22.2367 4.89886 21.7678C4.43002 21.299 4.16663 20.6631 4.16663 20C4.16663 19.337 4.43002 18.7011 4.89886 18.2323C5.3677 17.7634 6.00358 17.5 6.66663 17.5H33.3333ZM33.3333 5.83337C33.9963 5.83337 34.6322 6.09677 35.1011 6.56561C35.5699 7.03445 35.8333 7.67033 35.8333 8.33337C35.8333 8.99642 35.5699 9.6323 35.1011 10.1011C34.6322 10.57 33.9963 10.8334 33.3333 10.8334H6.66663C6.00358 10.8334 5.3677 10.57 4.89886 10.1011C4.43002 9.6323 4.16663 8.99642 4.16663 8.33337C4.16663 7.67033 4.43002 7.03445 4.89886 6.56561C5.3677 6.09677 6.00358 5.83337 6.66663 5.83337H33.3333Z" fill="white"/>
</svg>
