<svg width="30" height="30" viewBox="0 0 30 30" fill="none" xmlns="http://www.w3.org/2000/svg">
<path fill-rule="evenodd" clip-rule="evenodd" d="M15 4.75C12.4915 4.74686 10.0678 5.65819 8.18283 7.31333C6.29783 8.96848 5.08077 11.254 4.75952 13.7418C4.43827 16.2297 5.03485 18.7494 6.43757 20.829C7.84029 22.9087 9.95296 24.4058 12.38 25.04V19.2812H10.9525C10.5551 19.2809 10.1741 19.1229 9.89309 18.8419C9.61209 18.5609 9.45408 18.1799 9.45375 17.7825V15.6562C9.45408 15.2589 9.61209 14.8778 9.89309 14.5968C10.1741 14.3158 10.5551 14.1578 10.9525 14.1575H12.345C12.3288 13.7238 12.2962 13.2875 12.2962 12.8538C12.2962 11.7425 12.4838 9.53125 14.2375 8.27625C14.7812 7.88875 15.2925 7.63125 15.855 7.48C16.4062 7.33375 16.9587 7.30125 17.5487 7.30125C18.5912 7.30125 19.3125 7.405 19.7712 7.47125L19.9775 7.5C20.2561 7.53748 20.5117 7.67464 20.6969 7.88607C20.8821 8.09751 20.9845 8.3689 20.985 8.65V11.0037C20.9851 11.1607 20.9535 11.3161 20.892 11.4605C20.8305 11.6049 20.7403 11.7353 20.627 11.844C20.5137 11.9526 20.3796 12.0371 20.2327 12.0925C20.0859 12.1479 19.9293 12.173 19.7725 12.1662C19.5812 12.1737 18.9288 12.1987 18.365 12.1987C17.9775 12.1987 17.8625 12.2875 17.8225 12.3312C17.7663 12.3912 17.62 12.6112 17.62 13.2862V14.1575H19.2113C19.4282 14.1577 19.6426 14.2049 19.8396 14.2959C20.0365 14.387 20.2114 14.5197 20.3521 14.6848C20.4928 14.85 20.596 15.0438 20.6545 15.2527C20.7131 15.4616 20.7256 15.6808 20.6912 15.895L20.3675 18.0288C20.309 18.3785 20.1285 18.6962 19.858 18.9254C19.5875 19.1547 19.2446 19.2808 18.89 19.2812H17.62V25.04C20.047 24.4058 22.1597 22.9087 23.5624 20.829C24.9651 18.7494 25.5617 16.2297 25.2405 13.7418C24.9192 11.254 23.7022 8.96848 21.8172 7.31333C19.9322 5.65819 17.5085 4.74686 15 4.75ZM2.8125 15.0625C2.8125 8.33125 8.26875 2.875 15 2.875C21.7313 2.875 27.1875 8.33125 27.1875 15.0625C27.1875 21.175 22.6887 26.235 16.8212 27.115C16.688 27.1348 16.552 27.1256 16.4226 27.088C16.2931 27.0505 16.1733 26.9855 16.0713 26.8975C15.9693 26.8094 15.8875 26.7004 15.8314 26.5779C15.7753 26.4554 15.7462 26.3223 15.7463 26.1875V18.3438C15.7463 18.0951 15.845 17.8567 16.0208 17.6808C16.1967 17.505 16.4351 17.4062 16.6838 17.4062H18.5662L18.7738 16.0325H16.6825C16.4339 16.0325 16.1954 15.9337 16.0196 15.7579C15.8438 15.5821 15.745 15.3436 15.745 15.095V13.2875C15.745 12.4062 15.9263 11.6137 16.4538 11.05C16.9975 10.47 17.725 10.325 18.3663 10.325C18.6112 10.325 18.8775 10.32 19.11 10.3125V9.275C18.5921 9.20994 18.0707 9.17737 17.5487 9.1775C17.015 9.1775 16.655 9.20875 16.34 9.29375C16.0362 9.37375 15.7275 9.5175 15.3287 9.8025C14.395 10.4712 14.1737 11.7775 14.1712 12.8375L14.2537 15.0625C14.2583 15.1884 14.2374 15.314 14.1923 15.4316C14.1472 15.5493 14.0789 15.6567 13.9914 15.7473C13.9039 15.838 13.799 15.9101 13.683 15.9593C13.567 16.0085 13.4423 16.0338 13.3162 16.0337H11.3287V17.4075H13.3162C13.5649 17.4075 13.8033 17.5063 13.9792 17.6821C14.155 17.8579 14.2537 18.0964 14.2537 18.345V26.1888C14.2538 26.3235 14.2247 26.4567 14.1686 26.5792C14.1125 26.7017 14.0307 26.8107 13.9287 26.8987C13.8267 26.9867 13.7069 27.0517 13.5774 27.0893C13.448 27.1268 13.312 27.136 13.1788 27.1163C7.31125 26.235 2.8125 21.175 2.8125 15.0625Z" fill="white"/>
</svg>
