<svg width="40" height="40" viewBox="0 0 40 40" fill="none" xmlns="http://www.w3.org/2000/svg">
<path d="M38.3556 0H1.59815C0.714172 0 0 0.715 0 1.6V38.4C0 39.285 0.714172 40 1.59815 40H38.3556C39.2395 40 39.9537 39.285 39.9537 38.4V1.6C39.9537 0.715 39.2395 0 38.3556 0ZM11.8513 34.085H5.92314V14.995H11.8513V34.085ZM8.8897 12.385C8.21012 12.385 7.5458 12.1832 6.98075 11.8053C6.4157 11.4273 5.9753 10.89 5.71523 10.2614C5.45517 9.63285 5.38712 8.94118 5.5197 8.27389C5.65228 7.60659 5.97953 6.99365 6.46007 6.51255C6.9406 6.03146 7.55284 5.70383 8.21937 5.5711C8.88589 5.43837 9.57676 5.50649 10.2046 5.76685C10.8325 6.02722 11.3691 6.46813 11.7466 7.03384C12.1242 7.59954 12.3257 8.26463 12.3257 8.945C12.3207 10.845 10.7825 12.385 8.8897 12.385ZM34.0456 34.085H28.1224V24.8C28.1224 22.585 28.0825 19.74 25.041 19.74C21.9596 19.74 21.4851 22.15 21.4851 24.64V34.085H15.567V14.995H21.2504V17.605H21.3303C22.1194 16.105 24.0521 14.52 26.9388 14.52C32.9418 14.52 34.0456 18.475 34.0456 23.615V34.085Z" fill="#A7A2A9"/>
</svg>
