<svg width="90" height="90" viewBox="0 0 90 90" fill="none" xmlns="http://www.w3.org/2000/svg">
<g clip-path="url(#clip0_134_201)">
<path d="M68.9062 0H21.0938C9.44399 0 0 9.44399 0 21.0938V68.9062C0 80.556 9.44399 90 21.0938 90H68.9062C80.556 90 90 80.556 90 68.9062V21.0938C90 9.44399 80.556 0 68.9062 0Z" fill="white"/>
<path d="M37.2516 9.50063L52.1652 9.49219C55.5441 15.4417 58.3928 21.7118 60.8221 28.145C61.7938 30.535 62.7757 32.9252 63.5639 35.3904C64.7438 39.0013 66.2312 42.4934 67.3594 46.125C69.5756 53.7687 71.5338 61.4929 73.5022 69.2089C74.2363 72.282 75.2527 75.2695 75.9143 78.3608C74.8709 78.7149 73.8221 79.0566 72.7808 79.4211C71.6108 79.8093 70.3688 79.7702 69.1566 79.8789C67.4213 80.055 65.6786 80.1686 63.9408 80.324L59.7561 77.3132C59.5652 75.9238 59.5951 74.5038 59.3445 73.1201C58.6332 68.6837 57.5174 64.3279 56.2482 60.0314L32.9801 63.4018C32.8064 64.3771 32.6257 65.3548 32.4492 66.3325C31.6712 69.7985 31.867 73.389 31.6586 76.9198L26.3436 80.3422C26.0016 80.6161 25.5554 80.466 25.1659 80.4611C23.8521 80.324 22.5309 80.3292 21.2221 80.1636C19.8882 79.9903 18.4602 80.2385 17.2132 79.6075C16.1698 79.1005 15.0936 78.666 14.0625 78.1306C15.2501 72.2405 16.8293 66.4439 18.3684 60.6445C20.27 53.4094 22.5457 46.2881 24.8885 39.1982C28.1707 28.9494 32.3406 19.0114 37.2516 9.49992V9.50063ZM43.7143 30.3824C41.7783 36.244 39.5371 41.9864 37.4646 47.7963L49.84 40.6828C48.6352 37.1777 47.4205 33.6779 46.1461 30.2013C45.9035 29.6142 45.6602 28.8563 44.9909 28.6907C44.1953 28.7891 43.9622 29.7229 43.7143 30.3824Z" fill="#5D2E8C"/>
</g>
<defs>
<clipPath id="clip0_134_201">
<rect width="90" height="90" fill="white"/>
</clipPath>
</defs>
</svg>
