<svg width="90" height="90" viewBox="0 0 90 90" fill="none" xmlns="http://www.w3.org/2000/svg">
<g clip-path="url(#clip0_43_287)">
<mask id="mask0_43_287" style="mask-type:luminance" maskUnits="userSpaceOnUse" x="0" y="0" width="90" height="90">
<path d="M0 0H90V90H0V0Z" fill="white"/>
</mask>
<g mask="url(#mask0_43_287)">
<path d="M90 43.8337C90 37.8712 82.5337 32.22 71.085 28.7175C73.7287 17.0512 72.555 7.76625 67.38 4.7925C66.1257 4.09106 64.7068 3.73761 63.27 3.76875V7.85625C64.1137 7.85625 64.7925 8.025 65.3625 8.33625C67.8563 9.76875 68.94 15.2137 68.0963 22.2225C67.8938 23.9475 67.5638 25.7625 67.1588 27.615C63.3242 26.6943 59.4333 26.0266 55.5113 25.6162C53.1732 22.3933 50.6238 19.3291 47.88 16.4438C53.8612 10.8863 59.475 7.84125 63.2925 7.84125V3.75C58.245 3.75 51.6413 7.34625 44.9625 13.5825C38.2875 7.3875 31.68 3.825 26.6363 3.825V7.9125C30.435 7.9125 36.0675 10.9425 42.0488 16.4625C39.48 19.1625 36.9113 22.2225 34.47 25.6162C30.5396 26.0207 26.6417 26.6948 22.8037 27.6337C22.3837 25.7987 22.065 24.0262 21.8475 22.3162C20.985 15.3038 22.05 9.85875 24.5287 8.41125C25.0763 8.08125 25.7925 7.93125 26.6363 7.93125V3.84375C25.0988 3.84375 23.7 4.17375 22.4925 4.8675C17.3363 7.84125 16.1813 17.1037 18.84 28.7362C7.42875 32.2612 0 37.89 0 43.8337C0 49.7962 7.46625 55.4475 18.915 58.9462C16.2712 70.6162 17.445 79.9012 22.62 82.8712C23.8125 83.5687 25.2075 83.8987 26.745 83.8987C31.7925 83.8987 38.3963 80.3025 45.075 74.0662C51.75 80.265 58.3537 83.8237 63.4012 83.8237C64.8487 83.8508 66.2778 83.4964 67.545 82.7962C72.7012 79.8262 73.8562 70.5637 71.1975 58.9312C82.5713 55.4287 90 49.7775 90 43.8337ZM66.1125 31.5975C65.4001 34.0495 64.5742 36.4671 63.6375 38.8425C62.1069 35.8589 60.4234 32.9563 58.5938 30.1462C61.2038 30.5287 63.7113 31.0125 66.1162 31.5975M57.7162 51.135C56.3425 53.5328 54.8674 55.8712 53.295 58.1437C47.7909 58.628 42.2552 58.6343 36.75 58.1625C33.593 53.6515 30.8315 48.8762 28.4963 43.89C30.8262 38.8911 33.576 34.0989 36.7163 29.565C42.219 29.0797 47.7534 29.0722 53.2575 29.5425C54.7825 31.73 56.2625 34.055 57.6975 36.5175C59.09 38.92 60.3625 41.3525 61.515 43.815C60.3487 46.3056 59.0814 48.7476 57.7162 51.135ZM63.6375 48.75C64.6275 51.21 65.475 53.6662 66.1688 56.0512C63.7688 56.64 61.2337 57.135 58.6125 57.5175C60.4324 54.6805 62.1095 51.7543 63.6375 48.75ZM45.0375 68.325C43.3275 66.56 41.6275 64.6025 39.9375 62.4525C41.5875 62.5275 43.275 62.5837 44.9813 62.5837C46.7087 62.5862 48.4087 62.5425 50.0812 62.4525C48.4312 64.6012 46.725 66.5625 45.0375 68.325ZM31.3875 57.5175C28.8589 57.1517 26.3487 56.6687 23.865 56.07C24.5437 53.7037 25.3875 51.2625 26.34 48.825C27.0938 50.2875 27.885 51.7575 28.7475 53.2275C29.61 54.695 30.49 56.125 31.3875 57.5175ZM44.9437 19.3425C46.6537 21.1075 48.3538 23.065 50.0438 25.215C48.3937 25.14 46.7062 25.0837 45 25.0837C43.2725 25.0812 41.5725 25.125 39.9 25.215C41.55 23.0662 43.2562 21.105 44.9437 19.3425ZM31.3687 30.15C29.5494 32.9809 27.8723 35.9008 26.3438 38.8987C25.381 36.5079 24.5363 34.0712 23.8125 31.5975C26.2125 31.0275 28.7475 30.5325 31.3687 30.15ZM14.7675 53.115C8.2725 50.3475 4.0725 46.7137 4.0725 43.8337C4.0725 40.9537 8.2725 37.3012 14.7675 34.5525C16.3425 33.8737 18.0675 33.2662 19.8488 32.7C20.895 36.2925 22.2712 40.035 23.9738 43.8713C22.3646 47.4787 21.0051 51.1924 19.905 54.9862C18.1632 54.4461 16.4487 53.8217 14.7675 53.115ZM24.6375 79.3275C22.1438 77.9025 21.06 72.45 21.9037 65.445C22.1063 63.72 22.4363 61.9012 22.8412 60.0487C26.4338 60.93 30.36 61.6087 34.4887 62.0513C36.8268 65.2742 39.3762 68.3384 42.12 71.2237C36.1388 76.7812 30.525 79.8262 26.7075 79.8262C25.9878 79.8291 25.278 79.6594 24.6375 79.3312M68.1525 65.355C69.015 72.3637 67.95 77.8125 65.4713 79.26C64.9238 79.59 64.2075 79.7362 63.3637 79.7362C59.565 79.7362 53.9325 76.71 47.9512 71.1862C50.6848 68.3141 53.2171 65.2568 55.53 62.0362C59.4604 61.6318 63.3583 60.9577 67.1963 60.0187C67.6237 61.8687 67.9425 63.6475 68.1525 65.355ZM75.2137 53.1187C73.6387 53.7975 71.9137 54.405 70.1325 54.9712C69.011 51.1587 67.6328 47.4265 66.0075 43.8C67.695 39.9862 69.0488 36.2625 70.0762 32.685C71.8962 33.2525 73.615 33.8762 75.2325 34.5562C81.7275 37.3237 85.9275 40.9575 85.9275 43.8375C85.9087 46.7175 81.7087 50.37 75.2137 53.1187Z" fill="white"/>
<path d="M44.9813 52.2187C47.2051 52.2187 49.3379 51.3353 50.9103 49.7628C52.4828 48.1903 53.3663 46.0576 53.3663 43.8337C53.3663 41.6099 52.4828 39.4771 50.9103 37.9046C49.3379 36.3321 47.2051 35.4487 44.9813 35.4487C42.7574 35.4487 40.6247 36.3321 39.0522 37.9046C37.4797 39.4771 36.5963 41.6099 36.5963 43.8337C36.5963 46.0576 37.4797 48.1903 39.0522 49.7628C40.6247 51.3353 42.7574 52.2187 44.9813 52.2187Z" fill="white"/>
</g>
</g>
<defs>
<clipPath id="clip0_43_287">
<rect width="90" height="90" fill="white"/>
</clipPath>
</defs>
</svg>
