<svg width="63" height="63" viewBox="0 0 63 63" fill="none" xmlns="http://www.w3.org/2000/svg">
<path d="M28.875 11.8125H14.4375C12.2629 11.8125 10.5 13.5753 10.5 15.75V43.3125H52.5V28.875" stroke="white" stroke-width="2" stroke-linecap="round" stroke-linejoin="round"/>
<path d="M5.25 43.3125H57.75V45.9375C57.75 50.2867 54.2242 53.8125 49.875 53.8125H13.125C8.77576 53.8125 5.25 50.2867 5.25 45.9375V43.3125Z" stroke="white" stroke-width="2" stroke-linejoin="round"/>
<path d="M39.4884 6.98232C39.5699 7.05335 39.6257 7.14934 39.6469 7.25534C39.6682 7.36133 39.6538 7.47139 39.606 7.56836C39.5973 7.59695 39.593 7.62669 39.5933 7.65656C39.5933 7.7183 39.609 7.8359 39.7569 7.9829C39.8285 8.05444 39.8834 8.1054 39.9431 8.16126C39.9921 8.20634 40.0441 8.25338 40.1097 8.31806C40.2371 8.43958 40.3714 8.58266 40.4919 8.762C40.7418 9.13734 40.88 9.60676 40.88 10.2898C40.88 11.7304 39.9226 12.7398 38.92 12.7398C37.9175 12.7398 36.96 11.7304 36.96 10.2898C36.96 9.97034 37.0453 9.58912 37.1629 9.2373C37.2805 8.88548 37.4451 8.51994 37.6352 8.22594C37.8616 7.84374 38.1801 7.52328 38.4271 7.30768C38.563 7.18921 38.7042 7.07704 38.8504 6.97154L38.8936 6.94214C38.9834 6.88224 39.0906 6.85371 39.1983 6.86097C39.3061 6.86824 39.4074 6.9109 39.4884 6.98232ZM38.92 13.7198C39.5193 13.719 40.1002 13.5132 40.5664 13.1367C40.6128 13.2746 40.652 13.4134 40.684 13.5532C40.88 14.4058 40.88 15.4309 40.88 16.1453V16.1698C40.88 18.9011 40.5086 20.4505 40.0999 21.3364C39.8941 21.7823 39.6756 22.0665 39.4865 22.2448C39.4095 22.3185 39.3247 22.3836 39.2336 22.4389C39.1919 22.464 39.1483 22.4859 39.1033 22.5045C39.1033 22.5045 38.9925 22.5398 38.92 22.5398C38.8475 22.5398 38.7368 22.5045 38.7368 22.5045C38.6917 22.4859 38.6482 22.464 38.6064 22.4389C38.5154 22.3836 38.4306 22.3185 38.3536 22.2448C38.1644 22.0655 37.9459 21.7823 37.7401 21.3364C37.3314 20.4505 36.96 18.9011 36.96 16.1698V16.1453C36.96 15.4299 36.96 14.4058 37.156 13.5532C37.188 13.4134 37.2272 13.2746 37.2736 13.1367C37.7398 13.5132 38.3208 13.719 38.92 13.7198ZM43.82 17.6398C43.1193 17.6398 42.4519 17.4928 41.8502 17.2282C41.8633 16.8793 41.8698 16.5167 41.8698 16.1404C42.4634 16.4808 43.1358 16.6599 43.82 16.6598V14.6998C43.82 14.18 44.0265 13.6815 44.3941 13.3139C44.7617 12.9463 45.2602 12.7398 45.78 12.7398H47.74C47.7401 12.0438 47.5549 11.3602 47.2033 10.7594C46.8517 10.1587 46.3466 9.66235 45.7397 9.32148C45.1328 8.98061 44.446 8.80749 43.7501 8.81991C43.0541 8.83233 42.374 9.02984 41.7797 9.39214C41.7186 9.0633 41.6068 8.74593 41.4484 8.45134C42.1945 8.03871 43.0353 7.82787 43.8877 7.83964C44.7402 7.85142 45.5748 8.08542 46.3092 8.51851C47.0435 8.9516 47.6522 9.5688 48.075 10.3091C48.4978 11.0494 48.7201 11.8873 48.72 12.7398H50.68C51.1998 12.7398 51.6984 12.9463 52.066 13.3139C52.4335 13.6815 52.64 14.18 52.64 14.6998V19.5998C52.64 20.1196 52.4335 20.6182 52.066 20.9858C51.6984 21.3533 51.1998 21.5598 50.68 21.5598H45.78C45.2602 21.5598 44.7617 21.3533 44.3941 20.9858C44.0265 20.6182 43.82 20.1196 43.82 19.5998V17.6398ZM48.622 13.7198C48.4288 14.661 47.9637 15.5247 47.2843 16.2041C46.6049 16.8835 45.7412 17.3486 44.8 17.5418V19.5998C44.8 19.8597 44.9033 20.109 45.0871 20.2928C45.2708 20.4766 45.5201 20.5798 45.78 20.5798H50.68C50.9399 20.5798 51.1892 20.4766 51.373 20.2928C51.5568 20.109 51.66 19.8597 51.66 19.5998V14.6998C51.66 14.4399 51.5568 14.1906 51.373 14.0069C51.1892 13.8231 50.9399 13.7198 50.68 13.7198H48.622ZM47.6165 13.7198H45.78C45.5201 13.7198 45.2708 13.8231 45.0871 14.0069C44.9033 14.1906 44.8 14.4399 44.8 14.6998V16.5363C45.4779 16.3604 46.0964 16.0065 46.5916 15.5114C47.0867 15.0162 47.4406 14.3977 47.6165 13.7198Z" fill="#FFC800"/>
</svg>
