<svg width="36" height="35" viewBox="0 0 36 35" fill="none" xmlns="http://www.w3.org/2000/svg">
<path d="M17.9784 11.675C14.6652 11.675 11.9941 14.3 11.9941 17.5C11.9941 20.7 14.6909 23.325 17.9784 23.325C21.2658 23.325 23.9626 20.7 23.9626 17.5C23.9626 14.3 21.2658 11.675 17.9784 11.675ZM35.9567 17.5C35.9567 15.075 35.9567 12.7 35.8283 10.275C35.6999 7.475 35.0321 4.975 32.9261 2.95C30.8201 0.9 28.2774 0.25 25.4009 0.125C22.9096 -1.21072e-07 20.4697 0 17.9784 0C15.4871 0 13.0472 -1.21072e-07 10.5559 0.125C7.67933 0.25 5.11099 0.9 3.03064 2.95C0.924602 5 0.256834 7.475 0.128417 10.275C-1.24381e-07 12.7 0 15.075 0 17.5C0 19.925 -1.24381e-07 22.3 0.128417 24.725C0.256834 27.525 0.924602 30.025 3.03064 32.05C5.13668 34.1 7.67933 34.75 10.5559 34.875C13.0472 35 15.4871 35 17.9784 35C20.4697 35 22.9096 35 25.4009 34.875C28.2774 34.75 30.8457 34.1 32.9261 32.05C35.0321 30 35.6999 27.525 35.8283 24.725C35.9824 22.325 35.9567 19.925 35.9567 17.5ZM17.9784 26.475C12.8674 26.475 8.75803 22.475 8.75803 17.5C8.75803 12.525 12.8674 8.525 17.9784 8.525C23.0894 8.525 27.1987 12.525 27.1987 17.5C27.1987 22.475 23.0894 26.475 17.9784 26.475ZM27.5839 10.25C26.4025 10.25 25.4265 9.325 25.4265 8.15C25.4265 6.975 26.3768 6.05 27.5839 6.05C28.7911 6.05 29.7414 6.975 29.7414 8.15C29.7478 8.42384 29.6965 8.69606 29.5905 8.94979C29.4844 9.20351 29.326 9.43333 29.125 9.625C28.928 9.82069 28.6919 9.97491 28.4313 10.0781C28.1706 10.1813 27.891 10.2313 27.6096 10.225L27.5839 10.25Z" fill="#A7A2A9"/>
</svg>
