<svg width="94" height="90" viewBox="0 0 94 90" fill="none" xmlns="http://www.w3.org/2000/svg">
<mask id="mask0_43_332" style="mask-type:luminance" maskUnits="userSpaceOnUse" x="0" y="0" width="94" height="90">
<path d="M0.291672 0H93.412V90H0.291672V0Z" fill="white"/>
</mask>
<g mask="url(#mask0_43_332)">
<path d="M20.0023 0H24.2004V4.00875H28.0416V0H32.2398V12.135H28.0416V8.07375H24.2004V12.135H20.0061L20.0023 0ZM37.7572 4.02375H34.0634V0H45.653V4.02375H41.9554V12.135H37.7572V4.02375ZM47.4922 0H51.8688L54.5615 4.26375L57.2504 0H61.627V12.135H57.4483V6.12L54.5615 10.4362H54.4878L51.5972 6.12375V12.135H47.4922V0ZM63.7145 0H67.9165V8.12625H73.8142V12.1388H63.7145V0Z" fill="white"/>
<path fill-rule="evenodd" clip-rule="evenodd" d="M19.8703 82.7702L11.9317 17.689H81.772L73.8296 82.7627L46.8131 90.0002L19.8703 82.7702ZM35.9219 47.1452L35.1691 38.9702H66.7719L67.5091 30.9902H26.1481L28.3752 55.129H56.9981L56.0397 65.479L46.8286 67.8865H46.8208L37.6252 65.4865L37.0354 59.1227H28.74L29.8962 71.6552L46.8131 76.1927L63.7571 71.6552L65.8212 49.2902L66.023 47.149L35.9219 47.1452Z" fill="white"/>
</g>
</svg>
