<svg width="43" height="43" viewBox="0 0 43 43" fill="none" xmlns="http://www.w3.org/2000/svg">
<path d="M35.8333 32.2498H32.25V16.5728L21.5 23.2915L10.75 16.5728V32.2498H7.16665V10.7498H9.31665L21.5 18.3644L33.6833 10.7498H35.8333M35.8333 7.1665H7.16665C5.1779 7.1665 3.58331 8.76109 3.58331 10.7498V32.2498C3.58331 33.2002 3.96084 34.1116 4.63285 34.7836C5.30485 35.4556 6.21629 35.8332 7.16665 35.8332H35.8333C36.7837 35.8332 37.6951 35.4556 38.3671 34.7836C39.0391 34.1116 39.4166 33.2002 39.4166 32.2498V10.7498C39.4166 9.79948 39.0391 8.88804 38.3671 8.21604C37.6951 7.54403 36.7837 7.1665 35.8333 7.1665Z" fill="#A7A2A9"/>
</svg>
