<svg width="1216" height="919" viewBox="0 0 1216 919" fill="none" xmlns="http://www.w3.org/2000/svg">
<path d="M466.838 48.8869C550.011 -15.27 665.989 -15.27 749.162 48.8869L754 52.6183C791.872 81.832 838.46 97.4791 886.289 97.05L958.455 96.4026C1038.85 95.6813 1104.05 161.329 1102.78 241.716L1102.74 244.021C1102.03 288.867 1123.07 331.283 1159.2 357.856C1234.5 413.239 1234.5 525.761 1159.2 581.144C1123.07 607.717 1102.03 650.133 1102.74 694.979L1102.78 697.284C1104.05 777.671 1038.85 843.319 958.455 842.597L886.289 841.95C838.46 841.521 791.872 857.168 754 886.382L749.162 890.113C665.989 954.27 550.011 954.27 466.838 890.113L462 886.382C424.128 857.168 377.54 841.521 329.711 841.95L257.545 842.597C177.152 843.319 111.952 777.671 113.223 697.284L113.259 694.979C113.968 650.133 92.9311 607.717 56.7996 581.144C-18.503 525.761 -18.5029 413.239 56.7996 357.856C92.9311 331.283 113.968 288.867 113.259 244.021L113.223 241.716C111.952 161.329 177.152 95.6813 257.545 96.4026L329.711 97.05C377.54 97.4791 424.128 81.832 462 52.6183L466.838 48.8869Z" fill="url(#paint0_radial_40_118)"/>
<defs>
<radialGradient id="paint0_radial_40_118" cx="0" cy="0" r="1" gradientUnits="userSpaceOnUse" gradientTransform="translate(608 469.5) rotate(90) scale(480 637.28)">
<stop stop-color="#5D2E8C"/>
<stop offset="1" stop-color="#5B5750" stop-opacity="0"/>
</radialGradient>
</defs>
</svg>
