<svg width="90" height="90" viewBox="0 0 90 90" fill="none" xmlns="http://www.w3.org/2000/svg">
<path d="M50.0025 60.2063L46.785 64.6613C49.8375 67.3838 53.6325 68.745 58.17 68.745C61.635 68.6625 64.275 67.7688 66.09 66.0638C67.9325 64.3313 68.8538 62.2687 68.8538 59.8763C68.8538 57.5387 68.2075 55.6138 66.915 54.1012C65.6225 52.5887 63.45 51.3787 60.3975 50.4712C57.8725 49.7037 56.085 49.0025 55.035 48.3675C53.99 47.7075 53.4675 46.91 53.4675 45.975C53.4675 45.125 53.8937 44.4375 54.7463 43.9125C55.6012 43.3875 56.7425 43.1263 58.17 43.1288C59.2175 43.1288 60.4 43.335 61.7175 43.7475C63.0375 44.105 64.2062 44.6825 65.2237 45.48L68.1113 40.9837C65.5838 38.9487 62.2288 37.9312 58.0462 37.9312C55.0513 37.9312 52.59 38.7013 50.6625 40.2412C48.6825 41.7787 47.6925 43.69 47.6925 45.975C47.72 48.395 48.5175 50.2788 50.085 51.6263C51.68 52.9762 53.9487 54.0763 56.8912 54.9263C59.3412 55.6938 61.005 56.4637 61.8825 57.2362C62.288 57.5816 62.6128 58.0119 62.8337 58.4966C63.0547 58.9813 63.1665 59.5086 63.1613 60.0412C63.1818 60.529 63.075 61.0136 62.8515 61.4476C62.6279 61.8815 62.2953 62.2498 61.8862 62.5162C61.0037 63.1212 59.7375 63.4238 58.0875 63.4238C55.395 63.4487 52.7 62.3763 50.0025 60.2063ZM29.265 62.5988C28.3605 62.0267 27.5759 61.2842 26.955 60.4125L23.0775 63.5888C24.235 65.5388 25.665 66.9 27.3675 67.6725C28.9625 68.385 30.7912 68.7425 32.8537 68.745C33.9787 68.745 35.1475 68.5662 36.36 68.2087C37.5725 67.8512 38.6862 67.2463 39.7013 66.3937C41.4888 64.9637 42.4237 62.6263 42.5063 59.3812V38.4262H36.9375V58.3088C36.9375 60.2087 36.5125 61.5425 35.6625 62.31C34.8075 63.0525 33.7337 63.4238 32.4412 63.4238C31.2038 63.4238 30.145 63.1488 29.265 62.5988ZM11.25 22.5C11.25 19.5163 12.4353 16.6548 14.545 14.545C16.6548 12.4353 19.5163 11.25 22.5 11.25H67.5C70.4837 11.25 73.3452 12.4353 75.455 14.545C77.5647 16.6548 78.75 19.5163 78.75 22.5V67.5C78.75 70.4837 77.5647 73.3452 75.455 75.455C73.3452 77.5647 70.4837 78.75 67.5 78.75H22.5C19.5163 78.75 16.6548 77.5647 14.545 75.455C12.4353 73.3452 11.25 70.4837 11.25 67.5V22.5ZM22.5 18.75C21.5054 18.75 20.5516 19.1451 19.8484 19.8484C19.1451 20.5516 18.75 21.5054 18.75 22.5V67.5C18.75 68.4946 19.1451 69.4484 19.8484 70.1517C20.5516 70.8549 21.5054 71.25 22.5 71.25H67.5C68.4946 71.25 69.4484 70.8549 70.1517 70.1517C70.8549 69.4484 71.25 68.4946 71.25 67.5V22.5C71.25 21.5054 70.8549 20.5516 70.1517 19.8484C69.4484 19.1451 68.4946 18.75 67.5 18.75H22.5Z" fill="white"/>
</svg>
