<svg width="90" height="90" viewBox="0 0 90 90" fill="none" xmlns="http://www.w3.org/2000/svg">
<path d="M45 7.5H31.875C28.394 7.5 25.0556 8.88281 22.5942 11.3442C20.1328 13.8056 18.75 17.144 18.75 20.625C18.75 24.106 20.1328 27.4444 22.5942 29.9058C25.0556 32.3672 28.394 33.75 31.875 33.75H45M45 7.5V33.75M45 7.5H58.125C59.8486 7.5 61.5553 7.83949 63.1477 8.49908C64.7401 9.15867 66.187 10.1255 67.4058 11.3442C68.6245 12.563 69.5913 14.0099 70.2509 15.6023C70.9105 17.1947 71.25 18.9014 71.25 20.625C71.25 22.3486 70.9105 24.0553 70.2509 25.6477C69.5913 27.2401 68.6245 28.687 67.4058 29.9058C66.187 31.1245 64.7401 32.0913 63.1477 32.7509C61.5553 33.4105 59.8486 33.75 58.125 33.75H45" stroke="white" stroke-width="2" stroke-linecap="round" stroke-linejoin="round"/>
<path d="M31.875 60C28.394 60 25.0556 61.3828 22.5942 63.8442C20.1328 66.3056 18.75 69.644 18.75 73.125C18.75 76.606 20.1328 79.9444 22.5942 82.4058C25.0556 84.8672 28.394 86.25 31.875 86.25C35.356 86.25 38.6944 84.8672 41.1558 82.4058C43.6172 79.9444 45 76.606 45 73.125V60M31.875 60H45M31.875 60C28.394 60 25.0556 58.6172 22.5942 56.1558C20.1328 53.6944 18.75 50.356 18.75 46.875C18.75 43.394 20.1328 40.0556 22.5942 37.5942C25.0556 35.1328 28.394 33.75 31.875 33.75H45V60M45 46.875C45 45.1514 45.3395 43.4447 45.9991 41.8523C46.6587 40.2599 47.6255 38.813 48.8442 37.5942C50.063 36.3755 51.5099 35.4087 53.1023 34.7491C54.6947 34.0895 56.4014 33.75 58.125 33.75C59.8486 33.75 61.5553 34.0895 63.1477 34.7491C64.7401 35.4087 66.187 36.3755 67.4058 37.5942C68.6245 38.813 69.5913 40.2599 70.2509 41.8523C70.9105 43.4447 71.25 45.1514 71.25 46.875C71.25 48.5986 70.9105 50.3053 70.2509 51.8977C69.5913 53.4901 68.6245 54.937 67.4058 56.1558C66.187 57.3745 64.7401 58.3413 63.1477 59.0009C61.5553 59.6605 59.8486 60 58.125 60C56.4014 60 54.6947 59.6605 53.1023 59.0009C51.5099 58.3413 50.063 57.3745 48.8442 56.1558C47.6255 54.937 46.6587 53.4901 45.9991 51.8977C45.3395 50.3053 45 48.5986 45 46.875Z" stroke="white" stroke-width="2" stroke-linecap="round" stroke-linejoin="round"/>
</svg>
